<svg width="162" height="97" viewBox="0 0 162 97" fill="none" xmlns="http://www.w3.org/2000/svg">
<path d="M154.049 21.9229C154.049 27.4265 149.755 31.8881 144.458 31.8881C139.161 31.8881 46.0443 21.9229 34.7852 21.9229C46.0443 21.9229 139.161 11.9578 144.458 11.9578C149.755 11.9578 154.049 16.4193 154.049 21.9229Z" fill="#FA268D"/>
<path d="M154.049 74.2408C154.049 79.4693 149.755 83.7077 144.458 83.7077C139.161 83.7077 43.9593 73.6787 34.7852 74.2408C43.9593 74.2408 139.161 64.7739 144.458 64.7739C149.755 64.7739 154.049 69.0124 154.049 74.2408Z" fill="#FA268D"/>
<path d="M141.129 5.48084C141.129 8.50782 138.493 10.9617 135.242 10.9617C131.991 10.9617 61.6581 5.48084 53.6689 5.48084C61.6581 5.48084 131.991 0 135.242 0C138.493 0 141.129 2.45386 141.129 5.48084Z" fill="#FFBF00"/>
<path d="M141.129 90.6825C141.129 93.9846 138.478 96.6616 135.208 96.6616C131.938 96.6616 68.8095 90.6825 61.6199 90.6825C68.8095 90.6825 131.938 84.7034 135.208 84.7034C138.478 84.7034 141.129 87.3803 141.129 90.6825Z" fill="#FFBF00"/>
<path d="M162 47.8327C162 55.5378 155.799 61.7839 148.15 61.7839C140.501 61.7839 7.5544 47.8327 0 47.8327C7.5544 47.8327 140.501 33.8815 148.15 33.8815C155.799 33.8815 162 40.1276 162 47.8327Z" fill="#660EFF"/>
</svg>
