<svg width="20" height="16" viewBox="0 0 20 16" fill="none" xmlns="http://www.w3.org/2000/svg">
<path fill-rule="evenodd" clip-rule="evenodd" d="M4 0H16C18.2091 0 20 1.79086 20 4V12C20 14.2091 18.2091 16 16 16H4C1.79086 16 0 14.2091 0 12V4C0 1.79086 1.79086 0 4 0ZM4.6 2.55C4.35147 2.21863 3.88137 2.15147 3.55 2.4C3.21863 2.64853 3.15147 3.11863 3.4 3.45L6.2 7.18333C8.1 9.71667 11.9 9.71667 13.8 7.18333L16.6 3.45C16.8485 3.11863 16.7814 2.64853 16.45 2.4C16.1186 2.15147 15.6485 2.21863 15.4 2.55L12.6 6.28333C11.3 8.01667 8.7 8.01667 7.4 6.28333L4.6 2.55Z" fill="white"/>
</svg>
