<svg width="18" height="20" viewBox="0 0 18 20" fill="none" xmlns="http://www.w3.org/2000/svg">
<path d="M11.5 9C11.5 10.3807 10.3807 11.5 9 11.5C7.61929 11.5 6.5 10.3807 6.5 9C6.5 7.61929 7.61929 6.5 9 6.5C10.3807 6.5 11.5 7.61929 11.5 9Z" fill="white"/>
<path fill-rule="evenodd" clip-rule="evenodd" d="M10.4481 19.3019C14.3295 17.1909 17.5544 13.4294 18 9C18 4.02944 13.9706 0 9 0C4.02944 0 0 4.02944 0 9C0.449096 13.4645 3.34219 17.2505 7.52835 19.3518C8.45077 19.8149 9.54146 19.7951 10.4481 19.3019ZM13 9C13 11.2091 11.2091 13 9 13C6.79086 13 5 11.2091 5 9C5 6.79086 6.79086 5 9 5C11.2091 5 13 6.79086 13 9Z" fill="white"/>
</svg>
