<svg width="19" height="19" viewBox="0 0 19 19" fill="none" xmlns="http://www.w3.org/2000/svg">
<path d="M0.733164 2.82477L1.5926 1.1059C2.2031 -0.115093 3.83038 -0.379167 4.79567 0.586115L7.0774 2.86785C7.68612 3.47657 7.83703 4.40652 7.45204 5.17649L7.18931 5.70195C6.76661 6.54736 6.75958 7.54773 7.25212 8.35445C7.63772 8.986 8.13138 9.7113 8.62303 10.2029C9.04675 10.6267 9.64403 11.0519 10.2053 11.4081C11.1458 12.0052 12.3457 11.8926 13.2431 11.2324C14.0433 10.6436 15.1561 10.7403 15.8427 11.4583L17.8022 13.5071C18.7328 14.4802 18.4555 16.0762 17.2512 16.6783L15.4749 17.5665C14.0944 18.2567 12.5303 18.55 11.0711 18.047C9.31835 17.4428 6.80647 16.2348 4.43566 13.864C2.06484 11.4932 0.856857 8.9813 0.252677 7.22858C-0.250312 5.7694 0.0429205 4.20526 0.733164 2.82477Z" fill="white"/>
</svg>
