<svg width="192" height="27" viewBox="0 0 192 27" fill="none" xmlns="http://www.w3.org/2000/svg">
<path d="M43.0295 6.12359C43.0295 7.66088 41.8301 8.9071 40.3505 8.9071C38.8709 8.9071 12.8613 6.12359 9.71631 6.12359C12.8613 6.12359 38.8709 3.34009 40.3505 3.34009C41.8301 3.34009 43.0295 4.58631 43.0295 6.12359Z" fill="white"/>
<path d="M43.0295 20.7372C43.0295 22.1976 41.8301 23.3816 40.3505 23.3816C38.8709 23.3816 12.2789 20.5802 9.71631 20.7372C12.2789 20.7372 38.8709 18.0929 40.3505 18.0929C41.8301 18.0929 43.0295 19.2768 43.0295 20.7372Z" fill="white"/>
<path d="M39.4204 1.53093C39.4204 2.37644 38.6842 3.06186 37.7761 3.06186C36.868 3.06186 17.2223 1.53093 14.9907 1.53093C17.2223 1.53093 36.868 0 37.7761 0C38.6842 0 39.4204 0.68542 39.4204 1.53093Z" fill="white"/>
<path d="M39.4207 25.3298C39.4207 26.2521 38.6803 26.9999 37.7669 26.9999C36.8535 26.9999 19.2202 25.3298 17.2119 25.3298C19.2202 25.3298 36.8535 23.6597 37.7669 23.6597C38.6803 23.6597 39.4207 24.4074 39.4207 25.3298Z" fill="white"/>
<path d="M45.2504 13.3608C45.2504 15.513 43.5184 17.2577 41.3819 17.2577C39.2453 17.2577 2.11012 13.3608 0 13.3608C2.11012 13.3608 39.2453 9.46387 41.3819 9.46387C43.5184 9.46387 45.2504 11.2086 45.2504 13.3608Z" fill="white"/>
<path d="M63.792 13.9119L69.1904 16.7833C69.2239 16.7 69.2406 16.6335 69.2406 16.5835C69.2406 16.5169 69.2406 16.442 69.2406 16.3588V16.2589C69.2406 15.9094 69.2406 15.5598 69.2406 15.2103C69.2406 14.8607 69.249 14.5195 69.2658 14.1866V12.1392C69.2658 11.7896 69.2574 11.4317 69.2406 11.0655C69.2406 10.6993 69.2155 10.3331 69.1653 9.96692C69.0314 8.83502 68.6631 8.16088 68.0605 7.94449C67.3742 7.66151 66.4452 7.52003 65.2734 7.52003H63.0639C62.1767 7.52003 61.3732 7.56996 60.6534 7.66984C59.9504 7.75306 59.3729 7.86958 58.9209 8.01939C58.6028 8.1692 58.3434 8.50211 58.1425 9.01812C57.9584 9.51749 57.8663 10.1667 57.8663 10.9657C57.8663 11.3485 57.8663 11.748 57.8663 12.1641C57.8663 12.5636 57.8747 12.9548 57.8914 13.3376L57.9165 15.8594C57.9333 17.5739 58.2848 18.606 58.9711 18.9555H58.946C59.716 19.2884 61.2058 19.4549 63.4154 19.4549H64.2189C64.3695 19.4715 64.5034 19.4798 64.6206 19.4798C64.7378 19.4798 64.8633 19.4798 64.9972 19.4798C65.1814 19.4798 65.3739 19.4798 65.5747 19.4798C65.7924 19.4632 66.0183 19.4466 66.2527 19.4299C66.5875 19.4133 66.9223 19.38 67.257 19.33C67.5918 19.2635 67.8931 19.1469 68.161 18.9805C67.1901 18.4978 66.169 17.9818 65.0977 17.4324C64.0264 16.8665 63.0304 16.3505 62.1097 15.8844L63.792 13.9119ZM72.0026 18.7807L71.2242 20.129C70.4877 20.8115 69.6256 21.2692 68.638 21.5023C67.6672 21.7353 66.6628 21.8685 65.625 21.9018C65.4241 21.9184 65.1897 21.9267 64.9219 21.9267C64.6708 21.9267 64.4365 21.9267 64.2189 21.9267C61.5238 21.9267 59.3645 21.6937 57.7408 21.2276C56.8536 20.9946 56.1589 20.4536 55.6567 19.6047C55.1713 18.7558 54.87 17.6738 54.7528 16.3588C54.7193 15.8761 54.6942 15.3684 54.6775 14.8357C54.6775 14.3031 54.6775 13.7954 54.6775 13.3127C54.6775 10.1167 55.1713 7.93616 56.1589 6.77098C57.1633 5.60579 59.7411 5.02319 63.8925 5.02319H64.3946C64.6457 5.02319 64.9135 5.02319 65.1981 5.02319C65.4827 5.02319 65.7672 5.03152 66.0518 5.04816C66.5038 5.06481 66.9808 5.10642 67.483 5.173C67.9852 5.23959 68.4372 5.33114 68.8389 5.44766C70.0107 5.76392 70.8644 6.34651 71.4 7.19544C71.785 7.79468 72.0528 8.39392 72.2035 8.99316C72.3709 9.5924 72.4546 10.2332 72.4546 10.9157V15.6597L72.4797 16.4087C72.4462 17.2077 72.2872 17.9818 72.0026 18.7308L72.0277 18.7058L72.0026 18.7807Z" fill="white"/>
<path d="M86.5738 9.84208V21.8269H83.6863V21.0029C83.1172 21.4357 82.4894 21.7104 81.8031 21.8269C81.1168 21.9267 80.3217 21.9767 79.4178 21.9767C77.5765 21.9767 76.2373 21.6354 75.4004 20.953C74.5634 20.2705 74.1449 19.1802 74.1449 17.6821V9.84208H77.1831V17.6821C77.1831 18.0983 77.2249 18.4395 77.3086 18.7058C77.3923 18.9555 77.5011 19.1469 77.6351 19.2801C77.9531 19.5464 78.698 19.6796 79.8697 19.6796C81.4265 19.6796 82.4225 19.4715 82.8577 19.0554C83.3097 18.6392 83.5356 17.8902 83.5356 16.8082V9.84208H86.5738Z" fill="white"/>
<path d="M90.9069 5.12307V7.89455H87.8436V5.12307H90.9069ZM90.9069 9.84208V21.8269H87.8436V9.84208H90.9069Z" fill="white"/>
<path d="M104.997 16.8831C104.997 19.0637 104.478 20.4703 103.44 21.1028C102.955 21.3691 102.319 21.5772 101.532 21.727C100.762 21.8602 99.8244 21.9267 98.7197 21.9267C95.6229 21.9267 93.7314 21.3858 93.045 20.3038C92.4257 19.2718 92.116 17.6655 92.116 15.4849C92.116 13.5207 92.568 12.0643 93.4719 11.1155C94.3926 10.2 96.1334 9.74221 98.6945 9.74221C99.498 9.74221 100.235 9.79214 100.904 9.89202C101.574 9.97524 102.201 10.1251 102.787 10.3414H102.762C104.101 10.7909 104.771 11.8645 104.771 13.5624V13.7871C104.754 13.8204 104.746 13.8953 104.746 14.0118C104.746 14.1117 104.746 14.2365 104.746 14.3863H101.783C101.783 13.2877 101.599 12.6219 101.231 12.3888C100.812 12.1225 100.042 11.9894 98.9205 11.9894C97.2131 11.9894 96.1669 12.1808 95.7819 12.5636C95.4137 12.9132 95.2295 13.8204 95.2295 15.2852V16.3838C95.2295 17.5656 95.3802 18.4312 95.6815 18.9805C95.8154 19.1969 96.1251 19.3633 96.6105 19.4798C97.0959 19.5964 97.732 19.6546 98.5188 19.6546C99.9751 19.6546 100.946 19.5298 101.431 19.2801L101.406 19.3051C101.808 19.0887 102.009 18.2814 102.009 16.8831H104.997Z" fill="white"/>
<path d="M109.552 5.12307V14.2864H109.753C110.557 13.5707 111.385 12.83 112.239 12.0643C113.093 11.2986 113.921 10.5578 114.725 9.84208H118.742L112.289 15.41C112.858 15.8927 113.469 16.4171 114.122 16.983C114.775 17.5323 115.428 18.0899 116.081 18.6559C116.75 19.2052 117.403 19.7545 118.039 20.3038C118.675 20.8531 119.27 21.3608 119.822 21.8269H115.604L109.728 16.5086H109.552V21.8269H106.489V5.12307H109.552Z" fill="white"/>
<path d="M143.515 15.5349V16.3588C143.515 16.4254 143.515 16.492 143.515 16.5586C143.532 16.6251 143.54 16.6834 143.54 16.7333C143.54 16.8332 143.549 16.9248 143.565 17.008C143.565 17.0746 143.565 17.1495 143.565 17.2327C143.582 17.3159 143.59 17.3908 143.59 17.4574C143.59 18.7058 143.189 19.7129 142.385 20.4786C141.598 21.2443 140.393 21.6937 138.77 21.8269C138.251 21.8602 137.707 21.8768 137.137 21.8768C136.585 21.8935 136.049 21.9018 135.53 21.9018L132.768 21.9267C129.822 21.7603 128.073 20.8698 127.521 19.2551C127.035 17.757 126.784 16.1591 126.767 14.4612V11.0156C126.767 9.38433 127.136 8.07765 127.872 7.09556V7.12053C128.241 6.58787 128.801 6.16341 129.555 5.84715C130.308 5.53088 131.212 5.32281 132.266 5.22294C132.568 5.18965 132.886 5.16468 133.22 5.14803C133.572 5.11474 133.898 5.08978 134.2 5.07313C134.534 5.05648 134.861 5.04816 135.179 5.04816C135.497 5.04816 135.823 5.04816 136.158 5.04816C137.548 5.04816 138.694 5.13139 139.598 5.29784C140.502 5.4643 141.188 5.71398 141.657 6.04689C142.645 6.74601 143.197 8.40224 143.314 11.0156H140.176C140.176 9.63401 140.017 8.69354 139.699 8.19417C139.414 7.79468 138.552 7.59493 137.112 7.59493C136.409 7.59493 135.715 7.60325 135.028 7.6199C134.342 7.63654 133.647 7.66151 132.944 7.6948C131.639 7.76139 130.843 8.03604 130.559 8.51876C130.224 9.03477 130.057 9.82543 130.057 10.8907V13.7122L130.082 14.5361C130.082 14.7858 130.082 15.0438 130.082 15.3101C130.099 15.5765 130.115 15.8511 130.132 16.1341C130.166 16.6168 130.224 17.0829 130.308 17.5323C130.392 17.9651 130.534 18.323 130.735 18.606V18.581C130.919 18.8473 131.228 19.0387 131.664 19.1553C132.116 19.2718 132.609 19.3467 133.145 19.38C133.363 19.3966 133.564 19.4133 133.748 19.4299C133.949 19.4299 134.141 19.4299 134.325 19.4299C134.961 19.4299 135.572 19.4299 136.158 19.4299C136.761 19.4133 137.38 19.38 138.016 19.33C138.753 19.2801 139.322 19.1553 139.724 18.9555C140.142 18.7391 140.368 18.3396 140.402 17.757V16.9331C140.385 16.7833 140.376 16.5752 140.376 16.3089C140.376 16.0259 140.376 15.7679 140.376 15.5349H143.515Z" fill="white"/>
<path d="M147.843 5.12307V7.89455H144.78V5.12307H147.843ZM147.843 9.84208V21.8269H144.78V9.84208H147.843Z" fill="white"/>
<path d="M149.153 9.84208H152.116V10.4164C152.551 10.1167 153.045 9.90866 153.597 9.79214C154.149 9.65898 154.735 9.5924 155.355 9.5924C156.945 9.5924 158.092 9.90034 158.795 10.5162C159.514 11.1321 159.874 12.0643 159.874 13.3127C159.874 13.4125 159.866 13.5374 159.849 13.6872C159.849 13.8204 159.832 14.0784 159.799 14.4612H156.836C156.87 14.0784 156.886 13.8037 156.886 13.6373C156.903 13.4542 156.911 13.296 156.911 13.1629C156.911 12.6801 156.744 12.3556 156.409 12.1891C156.091 12.006 155.606 11.9144 154.953 11.9144C153.095 11.9144 152.166 12.6136 152.166 14.0118V21.8269H149.153V9.84208Z" fill="white"/>
<path d="M173.335 16.8831C173.335 19.0637 172.816 20.4703 171.778 21.1028C171.293 21.3691 170.657 21.5772 169.87 21.727C169.1 21.8602 168.163 21.9267 167.058 21.9267C163.961 21.9267 162.07 21.3858 161.383 20.3038C160.764 19.2718 160.454 17.6655 160.454 15.4849C160.454 13.5207 160.906 12.0643 161.81 11.1155C162.731 10.2 164.472 9.74221 167.033 9.74221C167.836 9.74221 168.573 9.79214 169.242 9.89202C169.912 9.97524 170.54 10.1251 171.126 10.3414H171.101C172.44 10.7909 173.109 11.8645 173.109 13.5624V13.7871C173.093 13.8204 173.084 13.8953 173.084 14.0118C173.084 14.1117 173.084 14.2365 173.084 14.3863H170.121C170.121 13.2877 169.937 12.6219 169.569 12.3888C169.15 12.1225 168.38 11.9894 167.259 11.9894C165.551 11.9894 164.505 12.1808 164.12 12.5636C163.752 12.9132 163.568 13.8204 163.568 15.2852V16.3838C163.568 17.5656 163.719 18.4312 164.02 18.9805C164.154 19.1969 164.463 19.3633 164.949 19.4798C165.434 19.5964 166.07 19.6546 166.857 19.6546C168.313 19.6546 169.284 19.5298 169.77 19.2801L169.745 19.3051C170.146 19.0887 170.347 18.2814 170.347 16.8831H173.335Z" fill="white"/>
<path d="M177.589 5.12307V21.8269H174.526V5.12307H177.589Z" fill="white"/>
<path d="M188.962 14.3863C188.945 13.4042 188.778 12.755 188.46 12.4388C188.158 12.0892 187.171 11.9144 185.497 11.9144C183.99 11.9144 183.044 12.0976 182.659 12.4638C182.475 12.6469 182.333 12.8965 182.233 13.2128C182.149 13.5124 182.09 13.9036 182.057 14.3863H188.962ZM188.912 17.5323H192C192 19.6962 191.347 20.9863 190.041 21.4024C188.886 21.7686 187.413 21.9517 185.622 21.9517C182.911 21.9517 181.111 21.5106 180.224 20.6284C179.37 19.7628 178.943 18.2564 178.943 16.1091C178.943 15.1104 179.019 14.2199 179.169 13.4375C179.32 12.6552 179.563 11.9977 179.897 11.465C180.567 10.2832 182.375 9.69227 185.321 9.69227C186.643 9.69227 187.748 9.80046 188.635 10.0169C189.539 10.2166 190.209 10.4913 190.644 10.8408C191.029 11.2403 191.347 11.8229 191.598 12.5886C191.849 13.3543 191.983 14.2615 192 15.3101V16.6085H182.032C182.048 17.5406 182.191 18.3063 182.459 18.9056C182.726 19.4549 183.681 19.7295 185.321 19.7295H186.124C186.292 19.7295 186.459 19.7295 186.627 19.7295C186.811 19.7295 187.003 19.7129 187.204 19.6796C187.807 19.6463 188.267 19.5464 188.585 19.38C188.702 19.3134 188.786 19.1719 188.836 18.9555C188.886 18.7225 188.912 18.5227 188.912 18.3563V17.5323Z" fill="white"/>
</svg>
